<svg width="64" height="64" viewBox="0 0 64 64" fill="none" xmlns="http://www.w3.org/2000/svg">
<path d="M32 0.019043L32 12.981C30.7764 11.4218 30 9.09693 30 6.50001C30 3.90309 30.7764 1.57818 32 0.019043Z" fill="#2CA09E"></path>
<path d="M30.5643 14.1851C28.2831 14.8884 25.9589 14.6184 24.2542 13.2257C22.5496 11.833 21.8215 9.60935 22.0558 7.23369L30.5643 14.1851Z" fill="#2CA09E"></path>
<path d="M32 19L32 28.9619C30.7181 27.7637 29.9047 25.9768 29.9047 23.981C29.9047 21.9851 30.7181 20.1983 32 19Z" fill="#2CA09E"></path>
<path d="M12.5 12.5C15.5 12.5 21.5 13 23.5 17.5L25.5 16.5L26.5 26.5L23 23C23 19.134 19.866 16 16 16L12.5 12.5Z" fill="#2CA09E"></path>
<path d="M0.019043 32L12.981 32C11.4218 30.7764 9.09693 30 6.50001 30C3.90309 30 1.57818 30.7764 0.019043 32Z" fill="#2CA09E"></path>
<path d="M14.1851 30.5643C14.8884 28.2831 14.6184 25.9589 13.2257 24.2542C11.833 22.5496 9.60935 21.8215 7.23369 22.0558L14.1851 30.5643Z" fill="#2CA09E"></path>
<path d="M19 32L28.9619 32C27.7636 30.7181 25.9768 29.9047 23.981 29.9047C21.9851 29.9047 20.1983 30.7181 19 32Z" fill="#2CA09E"></path>
<path d="M12.5 12.5C12.5 15.5 13 21.5 17.5 23.5L16.5 25.5L26.5 26.5L23 23C19.134 23 16 19.866 16 16L12.5 12.5Z" fill="#2CA09E"></path>
<path d="M0.019043 32L12.981 32C11.4218 33.2236 9.09692 34 6.50001 34C3.90309 34 1.57818 33.2236 0.019043 32Z" fill="#2CA09E"></path>
<path d="M14.1851 33.4357C14.8884 35.717 14.6184 38.0411 13.2257 39.7458C11.833 41.4504 9.60935 42.1785 7.23368 41.9442L14.1851 33.4357Z" fill="#2CA09E"></path>
<path d="M19 32L28.9619 32C27.7636 33.2819 25.9768 34.0954 23.981 34.0954C21.9851 34.0954 20.1983 33.2819 19 32Z" fill="#2CA09E"></path>
<path d="M12.5 51.5C12.5 48.5 13 42.5 17.5 40.5L16.5 38.5L26.5 37.5L23 41C19.134 41 16 44.134 16 48L12.5 51.5Z" fill="#2CA09E"></path>
<path d="M32 63.981V51.0191C30.7764 52.5782 30 54.9031 30 57.5C30 60.0969 30.7764 62.4219 32 63.981Z" fill="#2CA09E"></path>
<path d="M30.5643 49.815C28.2831 49.1116 25.9589 49.3816 24.2542 50.7743C22.5496 52.167 21.8215 54.3907 22.0558 56.7663L30.5643 49.815Z" fill="#2CA09E"></path>
<path d="M32 45L32 35.0381C30.7181 36.2364 29.9047 38.0232 29.9047 40.0191C29.9047 42.0149 30.7181 43.8018 32 45Z" fill="#2CA09E"></path>
<path d="M12.5 51.5C15.5 51.5 21.5 51 23.5 46.5L25.5 47.5L26.5 37.5L23 41C23 44.866 19.866 48 16 48L12.5 51.5Z" fill="#2CA09E"></path>
<path d="M63.981 32L51.019 32C52.5782 30.7764 54.9031 30 57.5 30C60.0969 30 62.4218 30.7764 63.981 32Z" fill="#2CA09E"></path>
<path d="M49.8149 30.5643C49.1116 28.2831 49.3816 25.9589 50.7743 24.2542C52.167 22.5496 54.3907 21.8215 56.7663 22.0558L49.8149 30.5643Z" fill="#2CA09E"></path>
<path d="M45 32H35.0381C36.2364 30.7181 38.0232 29.9047 40.0191 29.9047C42.0149 29.9047 43.8017 30.7181 45 32Z" fill="#2CA09E"></path>
<path d="M51.5 12.5C51.5 15.5 51 21.5 46.5 23.5L47.5 25.5L37.5 26.5L41 23C44.866 23 48 19.866 48 16L51.5 12.5Z" fill="#2CA09E"></path>
<path d="M32 0.019043L32 12.981C33.2236 11.4218 34 9.09693 34 6.50001C34 3.9031 33.2236 1.57818 32 0.019043Z" fill="#2CA09E"></path>
<path d="M33.4357 14.1851C35.717 14.8884 38.0411 14.6184 39.7458 13.2257C41.4504 11.833 42.1785 9.60936 41.9442 7.23369L33.4357 14.1851Z" fill="#2CA09E"></path>
<path d="M32 19L32 28.9619C33.2819 27.7637 34.0953 25.9768 34.0953 23.981C34.0953 21.9851 33.2819 20.1983 32 19Z" fill="#2CA09E"></path>
<path d="M51.5 12.5C48.5 12.5 42.5 13 40.5 17.5L38.5 16.5L37.5 26.5L41 23C41 19.134 44.134 16 48 16L51.5 12.5Z" fill="#2CA09E"></path>
<path d="M32 63.981V51.0191C33.2236 52.5782 34 54.9031 34 57.5C34 60.0969 33.2236 62.4219 32 63.981Z" fill="#2CA09E"></path>
<path d="M33.4357 49.815C35.717 49.1116 38.0411 49.3816 39.7458 50.7743C41.4504 52.167 42.1785 54.3907 41.9442 56.7663L33.4357 49.815Z" fill="#2CA09E"></path>
<path d="M32 45L32 35.0381C33.2819 36.2364 34.0953 38.0232 34.0953 40.0191C34.0953 42.0149 33.2819 43.8018 32 45Z" fill="#2CA09E"></path>
<path d="M51.5 51.5C48.5 51.5 42.5 51 40.5 46.5L38.5 47.5L37.5 37.5L41 41C41 44.866 44.134 48 48 48L51.5 51.5Z" fill="#2CA09E"></path>
<path d="M63.981 32L51.019 32C52.5782 33.2236 54.9031 34 57.5 34C60.0969 34 62.4218 33.2236 63.981 32Z" fill="#2CA09E"></path>
<path d="M49.815 33.4357C49.1116 35.717 49.3816 38.0411 50.7743 39.7458C52.167 41.4504 54.3907 42.1785 56.7663 41.9442L49.815 33.4357Z" fill="#2CA09E"></path>
<path d="M45 32H35.0381C36.2364 33.2819 38.0232 34.0953 40.0191 34.0953C42.0149 34.0953 43.8017 33.2819 45 32Z" fill="#2CA09E"></path>
<path d="M51.5 51.5C51.5 48.5 51 42.5 46.5 40.5L47.5 38.5L37.5 37.5L41 41C44.866 41 48 44.134 48 48L51.5 51.5Z" fill="#2CA09E"></path>
</svg>