<svg width="64" height="64" viewBox="0 0 64 64" fill="white" xmlns="http://www.w3.org/2000/svg">
<path d="M31.9938 51.6262C32.676 51.6232 33.7858 50.8943 33.892 50.8123C34.0648 50.6725 35.4687 49.816 36.6482 48.3855C37.5549 47.286 37.8187 46.5935 38.2887 46.6421C38.7556 46.6937 38.9345 48.0787 38.9618 48.3035C39.0498 48.9413 39.3014 50.4417 39.3621 52.3673C39.4773 55.9999 38.2735 58.5542 35.8447 61.2422C35.8447 61.2422 35.587 61.4517 35.2716 61.7707C34.9593 62.0896 34.1679 62.6818 33.7737 62.9309C33.0369 63.4017 32.3486 63.8664 31.9908 63.8664C31.633 63.8664 30.9446 63.4017 30.2048 62.9309C29.8106 62.6818 29.0222 62.0896 28.7069 61.7707C28.3915 61.4548 28.1338 61.2422 28.1338 61.2422C25.708 58.5542 24.5072 55.9999 24.6194 52.3673C24.6801 50.4417 24.9348 48.9383 25.0197 48.3035C25.05 48.0787 25.2259 46.6937 25.6959 46.6421C26.1628 46.5935 26.4266 47.286 27.3363 48.3855C28.5158 49.816 29.9167 50.6725 30.0926 50.8123C30.1987 50.8943 31.3085 51.6262 31.9908 51.6262M31.9908 51.0978C31.2691 51.0978 29.2102 48.6285 28.904 48.0939C28.5552 47.4895 28.1307 46.5723 27.9185 45.4059C27.782 44.6436 27.5849 43.778 28.8221 40.6375C29.3406 39.3132 30.0137 37.6488 30.2957 36.9958C30.5777 36.3428 31.0113 35.0003 30.8749 34.1499C30.8203 33.8158 30.5959 33.3875 30.3048 33.5364C30.0168 33.6852 29.665 35.0884 29.2951 35.7627C28.9373 36.6526 28.5158 37.4332 28.0125 38.3474C27.5152 39.2585 26.8724 40.4066 26.5388 41.6853C26.3326 42.2442 26.1568 43.2373 26.0597 43.6079C25.9597 43.9845 25.9779 44.5646 25.7595 44.3065C25.5412 44.0483 25.426 43.1675 25.6807 41.9617C25.9172 40.8379 26.5206 39.3892 27.2211 37.6518C27.8245 36.1575 29.5892 33.0717 29.5498 32.8074C29.5286 32.6525 29.4952 32.4521 29.1314 32.3154C28.6947 32.2425 28.5704 32.5189 28.3127 32.8256C26.7723 34.5964 25.0045 37.8128 24.2707 39.6169C23.9311 40.4522 23.7007 41.1659 23.5248 41.7764C23.352 42.393 23.0669 43.1979 22.9184 44.1819C22.7698 45.1599 22.5242 46.1258 22.4575 47.3771C22.3604 48.8259 22.2361 49.2481 22.2664 50.3415C22.3089 52.0029 22.6758 53.3514 22.412 53.2572C22.2179 53.1145 21.7873 51.3164 21.7085 50.7059C21.6266 50.0894 21.6236 49.403 21.6024 48.7469C21.5842 48.0909 21.6206 47.3164 21.6297 46.5723C21.6388 45.8251 21.9693 42.5114 23.1579 39.8204C23.8189 38.3231 24.8893 35.8599 26.6419 33.6822C26.9694 33.1233 27.4576 32.7619 27.3515 32.4764C27.2362 32.1848 26.1446 32.2364 25.6989 32.8773C24.2374 34.4779 22.3089 37.4818 21.7722 38.6602C21.2415 39.8326 20.6563 41.2328 20.4835 41.9769C20.3106 42.7241 19.7952 44.5069 19.6557 45.2024C19.5132 45.9041 19.5738 47.1858 19.2888 46.7484C19.0007 46.3141 19.1402 44.7499 19.1705 44.5464C19.2251 43.3315 19.5556 42.2351 19.6375 41.8979C19.7163 41.5577 20.1924 39.5319 21.0596 37.9829C22.5939 35.2251 24.8074 33.1749 24.7862 32.8864C24.765 32.5948 23.3247 33.1537 21.5629 34.9426C20.5411 35.9783 18.8673 38.8576 18.2821 40.4431C17.8818 41.5122 17.43 42.8121 17.3482 44.4036C17.2663 45.9982 17.1389 48.2033 16.8448 48.7621C16.5537 49.321 16.5477 49.2936 16.1565 49.8251C15.7653 50.3536 14.6859 50.6574 13.9521 50.6968C13.8763 50.6665 13.4002 50.7728 13.7974 50.8912C14.9072 51.2253 15.6623 51.4136 16.8024 50.9884C17.9425 50.5632 18.7005 49.4303 18.9431 49.3027C19.1827 49.1691 19.4889 49.078 19.592 49.6186C19.6799 50.0924 19.7012 51.5321 20.2803 53.1358C20.8595 54.7394 21.9147 56.7349 23.2792 58.2414C25.5958 60.6772 27.8882 62.4875 30.6293 63.5596C31.0932 63.7388 31.6663 64 31.9938 64C32.3213 64 32.8913 63.7388 33.3553 63.5596C36.0994 62.4875 38.3918 60.6772 40.7084 58.2414C42.0729 56.7319 43.1281 54.7394 43.7072 53.1358C44.2834 51.5321 44.3046 50.0924 44.3956 49.6186C44.5017 49.081 44.8049 49.1691 45.0414 49.3027C45.284 49.4303 46.0421 50.5632 47.1822 50.9884C48.3223 51.4136 49.0803 51.2253 50.1901 50.8912C50.5843 50.7728 50.1083 50.6665 50.0355 50.6968C49.3017 50.6574 48.2222 50.3536 47.828 49.8251C47.4369 49.2936 47.4338 49.321 47.1397 48.7621C46.8486 48.2033 46.7182 45.9982 46.6364 44.4036C46.5575 42.8121 46.0997 41.5122 45.7025 40.4431C45.1142 38.8576 43.4404 35.9783 42.4216 34.9426C40.6568 33.1537 39.2165 32.5948 39.1953 32.8864C39.1741 33.1719 41.3876 35.2251 42.9249 37.9829C43.7922 39.5349 44.2682 41.5577 44.3501 41.8979C44.4289 42.2351 44.7594 43.3315 44.814 44.5464C44.8443 44.7469 44.9838 46.311 44.6958 46.7484C44.4047 47.1858 44.4683 45.9041 44.3289 45.2024C44.1894 44.5039 43.6739 42.721 43.5011 41.9769C43.3282 41.2328 42.743 39.8326 42.2093 38.6602C41.6726 37.4818 39.7441 34.4779 38.2826 32.8773C37.8399 32.2334 36.7483 32.1848 36.6331 32.4764C36.5239 32.7619 37.0151 33.1233 37.3426 33.6822C39.0952 35.8568 40.1626 38.3231 40.8266 39.8204C42.0153 42.5114 42.3458 45.8251 42.3549 46.5723C42.364 47.3164 42.4004 48.0878 42.3822 48.7469C42.3609 49.403 42.3609 50.0894 42.276 50.7059C42.1972 51.3164 41.7636 53.1145 41.5695 53.2572C41.3088 53.3514 41.6757 51.9998 41.7181 50.3415C41.7484 49.245 41.6211 48.8229 41.5271 47.3771C41.4604 46.1258 41.2148 45.1599 41.0662 44.1819C40.9176 43.1979 40.6326 42.393 40.4597 41.7764C40.2839 41.1629 40.0504 40.4522 39.7138 39.6169C38.9831 37.8128 37.2183 34.5964 35.6749 32.8256C35.4141 32.5189 35.2928 32.2425 34.8532 32.3154C34.4954 32.4521 34.459 32.6525 34.4347 32.8074C34.3953 33.0717 36.1601 36.1606 36.7635 37.6518C37.4639 39.3892 38.0673 40.8379 38.3038 41.9617C38.5555 43.1675 38.4433 44.0453 38.225 44.3065C38.0097 44.5646 38.0279 43.9845 37.9248 43.6079C37.8247 43.2373 37.6519 42.2442 37.4457 41.6853C37.1122 40.4036 36.4724 39.2555 35.9721 38.3474C35.4687 37.4362 35.0503 36.6526 34.6894 35.7627C34.3225 35.0914 33.9678 33.6852 33.6797 33.5364C33.3886 33.3875 33.1642 33.8188 33.1096 34.1499C32.9762 35.0003 33.4098 36.3428 33.6888 36.9958C33.9738 37.6518 34.6439 39.3132 35.1625 40.6375C36.3996 43.778 36.2025 44.6436 36.063 45.4059C35.8538 46.5692 35.4263 47.4865 35.0806 48.0939C34.7713 48.6285 32.7155 51.0978 31.9938 51.0978" fill="#322018"></path>
<path d="M63.4779 11.407C63.4567 11.8747 63.3415 12.8527 63.2232 13.284C63.105 13.7183 63.0534 14.0433 63.0534 14.0433C61.9436 17.4906 60.3335 19.8171 57.1376 21.5301C55.4426 22.4383 54.0144 22.9728 53.4261 23.2158C53.2139 23.3039 51.9282 23.8445 51.6523 23.4618C51.3763 23.0822 51.8433 22.5051 52.3406 21.1657C52.9865 19.4284 53.0259 17.7882 53.0562 17.5635C53.0774 17.4299 53.1532 16.0995 52.8106 15.5103C52.4679 14.9211 51.2854 14.3227 51.158 14.2711C50.9518 14.1921 49.5146 13.4025 47.6831 13.0957C46.2792 12.8558 45.5454 12.9742 45.3574 12.5429C45.1694 12.1147 46.2731 11.2703 46.4581 11.1276C46.9614 10.7388 48.1349 9.76383 49.7693 8.74938C52.853 6.83288 55.6669 6.59597 59.2025 7.36136C59.2025 7.36136 59.5118 7.48285 59.9424 7.59523C60.376 7.71065 61.2826 8.09638 61.695 8.31506C62.4682 8.72205 63.2172 9.08652 63.3961 9.39328C63.575 9.70308 63.5174 10.5323 63.481 11.41M63.8206 10.7266C63.7448 10.2346 63.6841 9.60589 63.5204 9.32342C63.3567 9.04096 62.8442 8.67345 62.4561 8.36062C60.1577 6.52004 57.4469 5.43878 54.1842 4.64606C52.1981 4.21477 49.9451 4.29677 48.2683 4.59443C46.5945 4.89511 45.3392 5.59672 44.8874 5.75769C44.3689 5.93689 44.2931 5.63013 44.287 5.35374C44.281 5.07735 44.8783 3.85637 44.6751 2.6597C44.472 1.45391 43.9292 0.895052 43.0863 0.0992918C42.7861 -0.18621 42.9316 0.281525 42.9953 0.330121C43.3319 0.986168 43.6078 2.07351 43.344 2.68096C43.0802 3.28537 43.1075 3.27626 42.7709 3.80778C42.4374 4.34233 40.5877 5.55724 39.2535 6.42285C37.9194 7.28847 37.0218 8.33632 36.2941 9.21408C35.2177 10.5201 33.5651 13.4085 33.18 14.8117C32.519 17.2355 32.7525 18.7662 33.0132 18.6387C33.274 18.5142 33.9381 15.5711 35.5542 12.8588C36.4639 11.331 37.977 9.90354 38.2286 9.6636C38.4834 9.42669 39.2657 8.58841 40.2875 7.93844C40.4452 7.80784 41.7278 6.90881 42.2494 6.93614C42.7709 6.97259 41.6308 7.55575 41.0941 8.02956C40.5634 8.50033 39.2748 9.83672 38.7199 10.3591C38.165 10.8815 37.2462 12.0904 36.4972 13.1382C35.7483 14.1921 34.1109 17.3691 33.462 19.4375C33.1254 20.1421 33.6288 21.1171 33.938 21.0685C34.2382 21.0229 34.308 20.4185 34.6264 19.8475C35.627 17.2446 37.225 15.0821 38.1892 13.7608C39.9206 11.3827 42.6193 9.44492 43.2621 9.05918C43.905 8.67953 44.5539 8.26039 45.13 7.95059C45.7091 7.64079 46.3004 7.30062 46.8735 7.06675C47.4436 6.82377 49.2174 6.30136 49.4357 6.39551C49.648 6.57775 48.2986 6.93615 46.8401 7.73191C45.882 8.25128 45.5787 8.56715 44.3719 9.3781C43.3258 10.0584 42.6132 10.757 41.837 11.3766C41.0638 11.9932 40.5089 12.6492 40.0662 13.1048C39.6235 13.5665 39.1232 14.1192 38.5713 14.833C37.3736 16.3729 35.4754 19.5134 34.7173 21.7306C34.5809 22.1103 34.402 22.3532 34.684 22.6995C34.9842 22.9455 35.1752 22.8726 35.3177 22.8179C35.5664 22.7207 37.3584 19.644 38.3469 18.3744C39.4961 16.8983 40.4482 15.65 41.3003 14.8846C42.216 14.0585 43.0377 13.7153 43.3683 13.776C43.7018 13.8337 43.1894 14.1071 42.9165 14.3835C42.6436 14.6538 41.8734 15.3007 41.4883 15.7594C40.5483 16.6888 39.8782 17.8217 39.3415 18.7085C38.8017 19.5984 38.3378 20.3578 37.7496 21.111C37.3493 21.7701 36.3092 22.7754 36.3274 23.1004C36.3456 23.4254 36.8278 23.4072 37.1431 23.2887C37.9497 22.9789 38.8866 21.9311 39.3142 21.3661C39.7417 20.7921 40.8454 19.3767 41.7278 18.2651C43.8261 15.6227 44.6691 15.3584 45.3998 15.0972C46.5127 14.6994 47.5194 14.6113 48.2168 14.6113C48.8323 14.6113 51.998 15.158 52.3527 15.7837C52.7136 16.4093 51.6068 19.4253 51.3005 19.9599C50.9518 20.5643 50.3727 21.3904 49.4691 22.1558C48.8778 22.66 48.2319 23.2644 44.8965 23.7595C43.4926 23.966 41.7157 24.2181 41.0092 24.3001C40.3027 24.3882 38.9291 24.6767 38.259 25.2234C37.9982 25.436 37.7405 25.8461 38.0134 26.0222C38.2863 26.2014 39.675 25.8066 40.4422 25.7884C41.3912 25.6547 42.2767 25.6274 43.3167 25.6092C44.3537 25.5879 45.6667 25.5697 46.9402 25.2143C47.5285 25.1171 48.4715 24.7678 48.8444 24.6707C49.2204 24.5674 49.7117 24.2606 49.5934 24.5826C49.4812 24.8985 48.7777 25.4391 47.6073 25.8218C46.5187 26.1802 44.9632 26.3806 43.1105 26.6418C41.5186 26.8666 37.9618 26.8787 37.7526 27.0458C37.6343 27.1399 37.4767 27.2705 37.5373 27.6502C37.695 28.0693 37.9952 28.0359 38.3894 28.1058C40.6908 28.5583 44.3537 28.4794 46.2792 28.2151C47.1707 28.0936 47.9014 27.9327 48.52 27.7808C49.1416 27.6259 49.9785 27.468 50.9033 27.1065C51.8251 26.7421 52.7833 26.4748 53.8961 25.9099C55.2 25.269 55.6275 25.1627 56.5584 24.5917C57.9714 23.7261 58.9569 22.7329 59.0084 23.0062C58.9781 23.2462 57.6409 24.5218 57.1497 24.8985C56.6615 25.2751 56.0702 25.6213 55.5123 25.9645C54.9544 26.3077 54.2661 26.6631 53.6172 27.0276C52.9683 27.3981 49.9391 28.7679 47.016 29.0808C45.3907 29.2569 42.7254 29.5606 39.9752 29.1263C39.3233 29.1263 38.7653 28.8803 38.5743 29.1142C38.3772 29.3602 38.9685 30.2835 39.7478 30.3442C41.8582 30.812 45.4271 30.9851 46.7098 30.8606C47.9924 30.7361 49.4933 30.5447 50.2241 30.323C50.9518 30.1013 52.756 29.6548 53.4261 29.43C54.1053 29.1992 55.1848 28.5067 54.9513 28.9744C54.7179 29.4422 53.2957 30.1013 53.1077 30.1772C52.0343 30.7361 50.9185 31.0003 50.5849 31.0975C50.2514 31.2007 48.2653 31.7961 46.4854 31.8204C43.3319 31.8659 40.4573 30.9699 40.2178 31.137C39.9782 31.2979 41.1851 32.2668 43.6078 32.9047C45.0148 33.2722 48.3411 33.2843 50.0058 33.0018C51.1307 32.8135 52.4831 32.5554 53.8992 31.8295C55.3152 31.1036 57.2892 30.1073 57.9199 30.0861C58.5476 30.0648 58.5263 30.08 59.1813 30.1529C59.8332 30.2288 60.6398 31.0124 61.037 31.629C61.0491 31.708 61.3766 32.0694 61.2856 31.6685C61.0188 30.5386 60.8005 29.7854 59.8635 29.0109C58.9266 28.2364 57.5712 28.1422 57.3377 27.9965C57.1042 27.8567 56.8738 27.6381 57.2861 27.2736C57.65 26.9607 58.8841 26.2227 59.9848 24.9197C61.0825 23.6167 62.2772 21.7033 62.9018 19.7625C63.8479 16.5369 64.2663 13.6454 63.8236 10.7297" fill="#322018"></path>
<path d="M14.2221 8.74624C15.8564 9.76068 17.0299 10.7356 17.5363 11.1244C17.7182 11.2641 18.825 12.1085 18.6339 12.5398C18.4459 12.9711 17.7091 12.8526 16.3052 13.0956C14.4768 13.4054 13.0395 14.192 12.8303 14.271C12.7029 14.3226 11.5143 14.9179 11.1777 15.5102C10.8411 16.1025 10.9109 17.4297 10.9321 17.5634C10.9624 17.7881 11.0049 19.4283 11.6507 21.1656C12.145 22.505 12.615 23.0821 12.3391 23.4617C12.0631 23.8444 10.7744 23.3068 10.5682 23.2157C9.97696 22.9727 8.54575 22.4412 6.85377 21.53C3.65781 19.817 2.0477 17.4935 0.937912 14.0432C0.937912 14.0432 0.886365 13.7152 0.768108 13.2839C0.649852 12.8526 0.534628 11.8746 0.513403 11.4069C0.480048 10.5291 0.419404 9.69993 0.598305 9.39014C0.777205 9.08337 1.52313 8.71891 2.29938 8.31191C2.71176 8.09323 3.61839 7.7075 4.04897 7.59208C4.48258 7.4797 4.78883 7.35821 4.78883 7.35821C8.32743 6.59283 11.1383 6.82973 14.2221 8.74624ZM30.8113 14.8025C30.4262 13.4023 28.7737 10.5109 27.6973 9.20486C26.9695 8.33013 26.072 7.28228 24.7378 6.41667C23.4036 5.55105 21.557 4.33615 21.2204 3.80159C20.8839 3.27007 20.9081 3.27918 20.6504 2.67477C20.3866 2.06732 20.6625 0.979988 20.9991 0.323941C21.0628 0.275345 21.2083 -0.192393 20.9051 0.0900717C20.0652 0.888869 19.5224 1.44772 19.3192 2.65351C19.1191 3.85019 19.7164 5.07116 19.7074 5.34755C19.7013 5.62394 19.6255 5.93071 19.11 5.75151C18.6582 5.59357 17.3998 4.89197 15.726 4.58824C14.0492 4.28755 11.7963 4.20858 9.81019 4.63987C6.54752 5.4326 3.83671 6.51386 1.53829 8.35444C1.15017 8.66727 0.637721 9.03478 0.477013 9.31724C0.313273 9.59971 0.249599 10.2254 0.176826 10.7205C-0.265878 13.6362 0.152566 16.5277 1.09862 19.7532C1.72022 21.6971 2.92098 23.6075 4.01561 24.9105C5.11631 26.2135 6.35043 26.9515 6.71126 27.2644C7.12668 27.6288 6.89319 27.8445 6.65971 27.9872C6.42926 28.133 5.07083 28.2272 4.13387 29.0017C3.19692 29.7762 2.98163 30.5294 2.71782 31.6593C2.62382 32.0602 2.95131 31.6988 2.96647 31.6198C3.36369 31.0032 4.16723 30.2196 4.81915 30.1437C5.47108 30.0738 5.45289 30.0556 6.08056 30.0769C6.70823 30.0981 8.6822 31.0943 10.1013 31.8202C11.5173 32.5431 12.8697 32.8013 13.9916 32.9896C15.6593 33.272 18.9857 33.2599 20.3896 32.8924C22.8184 32.2546 24.0192 31.2857 23.7796 31.1247C23.5401 30.9607 20.6625 31.8536 17.5151 31.8081C15.7321 31.7868 13.746 31.1885 13.4155 31.0852C13.082 30.988 11.9661 30.7238 10.8927 30.1649C10.7047 30.086 9.28258 29.4269 9.0491 28.9622C8.81259 28.4944 9.88903 29.1869 10.5713 29.4178C11.2444 29.6425 13.0425 30.089 13.7733 30.3107C14.5041 30.5355 16.002 30.7238 17.2876 30.8483C18.5733 30.9728 22.1392 30.8028 24.2496 30.332C25.0289 30.2712 25.6202 29.3479 25.4231 29.1019C25.2351 28.868 24.6741 29.111 24.0252 29.114C21.2689 29.5514 18.6036 29.2447 16.9784 29.0685C14.0553 28.7557 11.0261 27.3889 10.3772 27.0183C9.72832 26.6539 9.04 26.2985 8.48208 25.9553C7.92415 25.6121 7.33589 25.2658 6.84467 24.8892C6.35346 24.5126 5.01625 23.237 4.98593 22.997C5.03747 22.7237 6.02295 23.7199 7.43899 24.5825C8.36988 25.1535 8.7944 25.2598 10.0983 25.9006C11.2111 26.4656 12.1693 26.7328 13.091 27.0973C14.0128 27.4588 14.8528 27.6167 15.4683 27.7716C16.0869 27.9235 16.8207 28.0814 17.7122 28.2059C19.6406 28.4702 23.3066 28.5491 25.605 28.0966C26.0022 28.0267 26.3024 28.0601 26.4601 27.641C26.5208 27.2583 26.3631 27.1277 26.2448 27.0366C26.0356 26.8665 22.4818 26.8543 20.8869 26.6326C19.0342 26.3714 17.4787 26.171 16.3901 25.8126C15.2197 25.4299 14.5162 24.8923 14.401 24.5734C14.2857 24.2544 14.777 24.5612 15.1499 24.6614C15.5229 24.7586 16.4659 25.1079 17.0542 25.2081C18.3277 25.5605 19.6406 25.5757 20.6807 25.603C21.7207 25.6212 22.6031 25.6485 23.5522 25.7761C24.3194 25.7974 25.7111 26.1922 25.981 26.013C26.2539 25.8338 25.9962 25.4268 25.7354 25.2142C25.0653 24.6675 23.6917 24.379 22.9852 24.2909C22.2787 24.2089 20.5018 23.9568 19.0979 23.7503C15.7624 23.2491 15.1166 22.6508 14.5223 22.1466C13.6217 21.3812 13.0425 20.5551 12.6938 19.9507C12.3876 19.4161 11.2808 16.4001 11.6416 15.7744C12.0025 15.1488 15.1651 14.599 15.7776 14.6021C16.475 14.6021 17.4787 14.6901 18.5945 15.088C19.3253 15.3523 20.1683 15.6165 22.2665 18.2559C23.1489 19.3675 24.2557 20.7829 24.6802 21.3569C25.1047 21.9249 26.0447 22.9697 26.8513 23.2825C27.1666 23.401 27.6487 23.4192 27.6639 23.0942C27.6821 22.7692 26.642 21.7609 26.2448 21.1048C25.6566 20.3516 25.1926 19.5923 24.6529 18.7023C24.1132 17.8124 23.443 16.6826 22.5031 15.7532C22.124 15.2946 21.3508 14.6476 21.0779 14.3773C20.805 14.1009 20.2956 13.8276 20.6261 13.7699C20.9597 13.7091 21.7753 14.0523 22.6911 14.8785C23.5461 15.6438 24.4983 16.8891 25.6505 18.3683C26.639 19.6409 28.425 22.7146 28.6767 22.8148C28.8192 22.8695 29.0102 22.9424 29.3104 22.6963C29.5924 22.3531 29.4135 22.1101 29.277 21.7305C28.522 19.5103 26.6208 16.3728 25.4261 14.8329C24.8743 14.1191 24.3709 13.5664 23.9282 13.1047C23.4855 12.6491 22.9306 11.9931 22.1574 11.3765C21.3811 10.7569 20.6716 10.0614 19.6255 9.37799C18.4187 8.56704 18.1185 8.24813 17.1542 7.7318C15.6988 6.93604 14.3464 6.57764 14.5586 6.3954C14.78 6.30125 16.5508 6.82366 17.1209 7.06664C17.6909 7.30051 18.2852 7.64372 18.8644 7.95048C19.4405 8.26028 20.0924 8.67942 20.7322 9.05908C21.372 9.43873 24.0707 11.3826 25.8051 13.7607C26.7664 15.085 28.3643 17.2445 29.365 19.8474C29.6864 20.4184 29.7561 21.0198 30.0533 21.0684C30.3626 21.117 30.869 20.142 30.5324 19.4374C29.8805 17.369 28.2461 14.192 27.4971 13.1381C26.7482 12.0872 25.8294 10.8845 25.2745 10.359C24.7196 9.83357 23.4309 8.49718 22.9033 8.02945C22.3636 7.5526 21.2235 6.96945 21.745 6.933C22.2665 6.90263 23.5492 7.80469 23.7099 7.93529C24.7287 8.58527 25.5141 9.42354 25.7657 9.66045C26.0174 9.90039 27.5305 11.3279 28.4401 12.8556C30.0533 15.5679 30.7204 18.511 30.9811 18.6355C31.2389 18.7631 31.4754 17.2323 30.8144 14.8086" fill="#322018"></path>
</svg>