<svg width="134" height="42" viewBox="0 0 134 42" fill="none" xmlns="http://www.w3.org/2000/svg">
<path d="M134 21.6541V21.5418C134 21.2609 133.671 21.0923 133.197 21.0923H126.374C125.864 21.0923 125.571 21.2609 125.571 21.5418V21.6541C125.571 22.0933 126.111 22.3563 126.516 22.7802C128.993 24.9482 129.314 25.4921 127.635 25.5406C127.485 25.5457 127.497 25.5457 127.319 25.5457C126.96 25.5483 126.96 25.8343 126.96 25.8343C126.96 25.8343 126.96 25.8292 126.955 25.8241V38.3646C126.955 39.575 125.569 39.8278 125.569 40.502V40.5862C125.569 40.8952 125.862 41.0638 126.371 41.0638H133.195C133.669 41.0638 133.997 40.8952 133.997 40.5862V40.502C133.997 39.8278 132.464 39.5725 132.464 38.3646V23.7914C132.464 22.6091 133.997 22.3563 133.997 21.6541" fill="#322018"></path>
<path d="M117.958 38.3646L109.236 22.3002C108.762 21.4575 108.105 21.0898 107.012 21.0898H103.218C102.779 21.0898 102.489 21.2864 102.489 21.5392V21.6516C102.489 22.0142 103.159 22.4176 103.562 22.9156C103.567 22.9105 105.009 24.3354 105.59 25.533C105.941 26.2582 108.153 30.8061 109.845 34.2815H101.429C101.429 34.2815 104.441 27.9972 104.685 27.4328C104.93 26.8685 103.2 25.1142 103.2 25.1142L96.5035 38.3621C95.8462 39.7129 94.5339 39.7972 94.5339 40.4994V40.5837C94.5339 40.8927 94.8626 41.0612 95.3366 41.0612H100.117C100.664 41.0612 100.955 40.8927 100.955 40.5837V40.4994C100.955 39.7972 98.9114 39.5418 99.4949 38.3621L100.552 36.1124H110.732C111.381 37.4505 111.827 38.3621 111.827 38.3621C112.411 39.5418 110.367 39.7972 110.367 40.4994V40.5837C110.367 40.8927 110.696 41.0612 111.17 41.0612H119.16C119.634 41.0612 119.963 40.8927 119.963 40.5837V40.4994C119.963 39.7972 118.687 39.6823 117.955 38.3621" fill="#322018"></path>
<path d="M88.4493 38.3085L84.9458 23.9319C84.6528 22.6372 86.3319 22.3844 86.3319 21.6516V21.5392C86.3319 21.2583 86.0032 21.0898 85.565 21.0898H81.3684C80.5301 21.0898 79.9823 21.3988 79.6892 22.0193L73.8517 35.2697L67.9404 22.0193C67.6499 21.4013 67.0282 21.0898 66.1517 21.0898H62.1385C61.6646 21.0898 61.3716 21.2864 61.3716 21.5673V21.6516C61.3716 22.1342 62.0544 22.41 62.457 22.8824C62.5207 22.959 63.7896 24.2179 64.9847 26.6336C65.6242 27.9257 65.2446 27.1571 65.0637 26.7919L65.0101 26.6846C64.9949 26.6514 64.9847 26.631 64.9847 26.631L65.0101 26.6846C65.0254 26.7127 65.0407 26.7485 65.0637 26.7919L71.7344 40.3028C72.0274 40.8084 72.4274 41.0331 73.0848 41.0331C73.7422 41.0331 74.0327 40.7803 74.2518 40.2722L80.418 27.1341L82.9711 38.3034C83.2616 39.5418 81.6945 39.7946 81.6945 40.4969V40.5811C81.6945 40.8901 82.0589 41.0587 82.5328 41.0587H89.1016C89.6138 41.0587 89.9399 40.8901 89.9399 40.5811V40.4969C89.9399 39.7946 88.7347 39.5393 88.4442 38.3034" fill="#322018"></path>
<path d="M62.3168 25.6862L59.6949 38.3085C59.4401 39.5469 58.2349 39.7997 58.2349 40.502V40.5862C58.2349 40.8952 58.5279 41.0638 59.0375 41.0638H63.1602C63.6723 41.0638 63.9628 40.8952 63.9628 40.5862V40.502C63.9628 39.7997 62.3932 39.5444 62.6506 38.3085C62.6506 38.3085 64.2201 30.4843 64.3832 29.6519C64.5463 28.8194 62.9334 26.059 62.3142 25.6836" fill="#322018"></path>
<path d="M51.9616 38.3646L43.2397 22.3002C42.7658 21.4575 42.1084 21.0898 41.0127 21.0898H37.2188C36.7805 21.0898 36.4875 21.2864 36.4875 21.5392V21.6516C36.4875 22.0142 37.1576 22.4176 37.5602 22.9156C37.5653 22.9105 39.0075 24.3354 39.5884 25.533C39.94 26.2582 42.1517 30.8061 43.8436 34.2815H35.4275C35.4275 34.2815 38.4393 27.9972 38.6839 27.4328C38.9285 26.8685 37.5373 25.0274 37.2926 24.9252L30.4996 38.3595C29.8423 39.7104 28.53 39.7946 28.53 40.4969V40.5811C28.53 40.8901 28.8587 41.0587 29.3327 41.0587H34.1127C34.6605 41.0587 34.951 40.8901 34.951 40.5811V40.4969C34.951 39.7946 32.9075 39.5393 33.491 38.3595L34.5484 36.1098H44.7277C45.38 37.4479 45.8208 38.3595 45.8208 38.3595C46.4043 39.5393 44.3608 39.7946 44.3608 40.4969V40.5811C44.3608 40.8901 44.6895 41.0587 45.1635 41.0587H53.154C53.628 41.0587 53.9566 40.8901 53.9566 40.5811V40.4969C53.9566 39.7946 52.6801 39.6797 51.9488 38.3595" fill="#322018"></path>
<path d="M9.15756 21.0923H0.838296C0.328694 21.0923 0 21.2609 0 21.5418V21.6541C0 22.3589 1.42179 22.6092 1.42179 23.7915V38.3646C1.42179 39.5444 0 39.7997 0 40.502V40.5862C0 40.8952 0.328694 41.0638 0.838296 41.0638H6.85925V23.9881C6.85925 23.0867 7.51664 22.8058 8.31926 22.8058H9.01232C14.8141 22.8058 19.1916 27.3639 19.1916 32.9051C19.1916 37.0419 15.8716 39.3478 11.4202 39.3478H9.6799C9.09895 39.4065 8.5919 40.7573 8.48488 41.0638H10.8749C19.1942 41.0638 24.9221 37.1262 24.9221 31.1049C24.9221 25.0836 18.8298 21.0898 9.16011 21.0898" fill="#322018"></path>
<path d="M74.6213 6.52947V6.50138C74.6213 6.29454 75.0825 6.25879 75.0825 5.8732V0.789054C75.0825 0.403465 74.6213 0.357501 74.6213 0.160877V0.132788C74.6213 0.04852 74.7182 0.00255585 74.8634 0.00255585H80.1556C80.3748 0.00255585 80.4588 0.0766092 80.4971 0.237484L80.7901 1.25125C80.8258 1.39169 80.7417 1.4683 80.5964 1.4683H80.5353C80.0486 1.4683 79.7072 0.474965 79.0014 0.474965H76.9579C76.7158 0.474965 76.5451 0.577108 76.5451 0.840125V3.02598H78.4179C78.9402 3.02598 78.9886 2.40801 79.2689 2.40801H79.3428C79.4524 2.40801 79.5263 2.47441 79.5263 2.58676V3.91717C79.5263 4.01931 79.4524 4.09592 79.3428 4.09592H79.2689C78.9886 4.09592 78.9402 3.50605 78.4179 3.50605H76.5451L76.5323 5.69956C76.5323 5.9447 76.6903 6.1975 77.0802 6.1975H79.3785C80.097 6.1975 80.3391 5.16586 80.864 5.16586H80.9481C81.0831 5.16586 81.1544 5.268 81.1315 5.38036L80.8512 6.42222C80.8028 6.58054 80.7187 6.66736 80.4996 6.66736H74.8914C74.7335 6.66736 74.6239 6.62139 74.6239 6.53713" fill="#322018"></path>
<path d="M62.7603 6.52947V6.50138C62.7603 6.29454 63.2113 6.24857 63.2113 5.88341V0.781393C63.2113 0.416233 62.7603 0.367716 62.7603 0.160877V0.132788C62.7603 0.04852 62.8571 0.00255585 63.0151 0.00255585H64.9133C65.0713 0.00255585 65.1681 0.04852 65.1681 0.132788V0.160877C65.1681 0.367716 64.6942 0.41368 64.6942 0.781393L64.6815 3.02342H68.9264V0.781393C68.9264 0.416233 68.4754 0.367716 68.4754 0.160877V0.132788C68.4754 0.04852 68.5723 0.00255585 68.7302 0.00255585H70.6285C70.7865 0.00255585 70.8961 0.04852 70.8961 0.132788V0.160877C70.8961 0.367716 70.3966 0.41368 70.3966 0.781393V5.88341C70.3966 6.24857 70.8961 6.29454 70.8961 6.50138V6.52947C70.8961 6.61373 70.7865 6.6597 70.6285 6.6597H68.7302C68.5723 6.6597 68.4754 6.61373 68.4754 6.52947V6.50138C68.4754 6.29454 68.9264 6.24857 68.9264 5.88341V3.53924H64.6942L64.6815 5.88341C64.6815 6.24857 65.1681 6.29454 65.1681 6.50138V6.52947C65.1681 6.61373 65.0713 6.6597 64.9133 6.6597H63.0151C62.8571 6.6597 62.7603 6.61373 62.7603 6.52947Z" fill="#322018"></path>
<path d="M55.2819 6.52946V6.50137C55.2819 6.29454 55.7559 6.24857 55.7559 5.88341V0.508159H54.4309C53.7506 0.508159 53.6512 1.55767 53.2257 1.55767H53.0804C52.9352 1.55767 52.8486 1.48362 52.8741 1.34062L53.0932 0.234928C53.1187 0.0766069 53.2155 0 53.4346 0H59.5422C59.7613 0 59.8582 0.0740534 59.8938 0.234928L60.1614 1.35084C60.197 1.48107 60.1002 1.55767 59.955 1.55767H59.8097C59.3842 1.55767 59.2262 0.508159 58.5434 0.508159H57.2184V5.88086C57.2184 6.24602 57.7051 6.29198 57.7051 6.49882V6.52691C57.7051 6.61118 57.6083 6.65714 57.4375 6.65714H55.5393C55.3813 6.65714 55.2845 6.61118 55.2845 6.52691" fill="#322018"></path>
</svg>